<?xml version="1.0" encoding="utf-8"?>
<!-- Generator: Adobe Illustrator 27.7.0, SVG Export Plug-In . SVG Version: 6.00 Build 0)  -->
<svg version="1.1" id="spirograph11" xmlns="http://www.w3.org/2000/svg" xmlns:xlink="http://www.w3.org/1999/xlink" x="0px"
	 y="0px" viewBox="0 0 202 202" enable-background="new 0 0 202 202" xml:space="preserve">
<g>
	<g id="Layer_1_00000064344513971263585490000013176759667619993998_">
		<g>
			<polygon fill="none" stroke="#355631" stroke-miterlimit="10" points="96.1,201 105.9,201 110.8,101 105.9,1 96.1,1 91.2,101 			
				"/>
			<polygon fill="none" stroke="#E9B231" stroke-miterlimit="10" points="130.9,196.6 140,193.3 110.2,97.7 71.1,5.4 62,8.7 
				91.8,104.3 			"/>
			<polygon fill="none" stroke="#76C2E6" stroke-miterlimit="10" points="162,180.7 169.5,174.5 108.5,94.8 40,21.3 32.5,27.5 
				93.5,107.2 			"/>
			<polygon fill="none" stroke="#76B777" stroke-miterlimit="10" points="185.8,155.2 190.6,146.8 105.9,92.6 16.2,46.8 11.4,55.2 
				96.1,109.4 			"/>
			<polygon fill="none" stroke="#76B777" stroke-miterlimit="10" points="199.3,123.1 201,113.6 102.7,91.5 2.7,78.9 1,88.4 
				99.3,110.5 			"/>
			<polygon fill="none" stroke="#4373B6" stroke-miterlimit="10" points="201,88.4 199.3,78.9 99.3,91.5 1,113.6 2.7,123.1 
				102.7,110.5 			"/>
			<polygon fill="none" stroke="#DA7F2D" stroke-miterlimit="10" points="190.6,55.2 185.8,46.8 96.1,92.6 11.4,146.8 16.2,155.2 
				105.9,109.4 			"/>
			<polygon fill="none" stroke="#4373B6" stroke-miterlimit="10" points="169.5,27.5 162,21.3 93.5,94.8 32.5,174.5 40,180.7 
				108.5,107.2 			"/>
			<polygon fill="none" stroke="#4F8DC2" stroke-miterlimit="10" points="140,8.7 130.9,5.4 91.8,97.7 62,193.3 71.1,196.6 
				110.2,104.3 			"/>
		</g>
	</g>
</g>
</svg>
